<svg id="Capa_1" data-name="Capa 1" xmlns="http://www.w3.org/2000/svg" xmlns:xlink="http://www.w3.org/1999/xlink" viewBox="0 0 300 300"><defs><style>.cls-1{fill:#613515;}.cls-2{fill:url(#Degradado_sin_nombre_36);}</style><radialGradient id="Degradado_sin_nombre_36" cx="146.97" cy="120.01" r="96.41" gradientUnits="userSpaceOnUse"><stop offset="0" stop-color="#da8c21"/><stop offset="0.61" stop-color="#915b1d"/><stop offset="1" stop-color="#613515"/></radialGradient></defs><title>Mesa de trabajo 1</title><path class="cls-1" d="M.22,233.71H9.76v34.81H.22Z"/><path class="cls-1" d="M53.68,233.71v34.81H44.13L27.5,246.84v21.68H18V233.71H27.5v0l.06,0,16.57,21.63V233.71Z"/><path class="cls-1" d="M96.84,233.71l-13.7,34.81H73L59.24,233.71h9.37L78,258l9.43-24.32Z"/><path class="cls-1" d="M112.53,240.58v7.16h13.24V254H112.53v7.71h19.33v6.86H103V233.71h28.87v6.87Z"/><path class="cls-1" d="M175.78,233.71v34.81h-9.55L149.6,246.84v21.68h-9.54V233.71h9.54v0l.06,0,16.57,21.63V233.71Z"/><path class="cls-1" d="M206.31,234.56a11.54,11.54,0,0,1,6.27,3.53q2.43,2.68,2.43,7.76,0,7.35-5.06,10t-12.86,2.64H193.4l.06,10H184V233.71h13.11A43.6,43.6,0,0,1,206.31,234.56Zm-3.95,16.81a3.43,3.43,0,0,0,2.32-1.6,8.25,8.25,0,0,0,.67-3.82,7.74,7.74,0,0,0-.62-3.56,3.24,3.24,0,0,0-2.28-1.49,27.2,27.2,0,0,0-5.36-.37h-3.57v11.23h3.57A25.22,25.22,0,0,0,202.36,251.37Z"/><path class="cls-1" d="M235.27,257.48h-3.39v11h-9.55V233.71h13.12a50.49,50.49,0,0,1,9.31.72,11.24,11.24,0,0,1,6.18,3.29c1.62,1.7,2.43,4.25,2.43,7.63q0,8.55-8.26,11l12.12,12.18H245.87Zm7.5-15.36a4.28,4.28,0,0,0-2.58-1.32,31.21,31.21,0,0,0-4.74-.27h-3.57v10.24h3.57a22.24,22.24,0,0,0,4.54-.37,4.77,4.77,0,0,0,2.72-1.55,5.11,5.11,0,0,0,1-3.4A4.91,4.91,0,0,0,242.77,242.12Z"/><path class="cls-1" d="M265.58,264.82q-5.25-4.31-5.24-13.6t5.24-13.73q5.24-4.37,14.61-4.37t14.7,4.37q5.33,4.38,5.33,13.73t-5.33,13.6q-5.34,4.29-14.7,4.3T265.58,264.82Zm22-5q3-2.44,3.05-8.55c0-4.15-1.05-7.06-3.13-8.76a11.86,11.86,0,0,0-7.7-2.53,10.35,10.35,0,0,0-7.21,2.49q-2.75,2.47-2.75,8.75c0,4.17.91,7.06,2.72,8.65a10.78,10.78,0,0,0,7.35,2.39A11.9,11.9,0,0,0,287.62,259.82Z"/><path id="_Trazado_compuesto_" data-name="&lt;Trazado compuesto&gt;" class="cls-2" d="M61.4,77c1.26-7.14,12.9-22.45,12.9-22.45.36,3.92,7.57,13.1,7.57,13.1a17.4,17.4,0,0,0-.17-17.23C90.85,52.2,94.2,67,94.2,67c6.75-4.42,5.87-14.4,5.87-14.4,10.21,10.75,3.54,19.74,3.54,19.74,10.5-2.88,9.93-11.57,9.93-11.57,8.28,16.71,4.61,19.42-3.8,22.06-6.19,1.94-14.6-3-23.38-.2C69.44,88.06,60.14,84.14,61.4,77Zm4.5,34.25c4.43,8.12-2.41,13.69-4.31,17.88-1.67,3.69-1.45,11.84,8.76,13.64s23.52-17.13,12.45-30.54-22.66-9.29-22.66-9.29A56.23,56.23,0,0,1,65.9,111.25Zm8-18.74c.13-.77.7-2.73.7-2.73s-5.64-2.23-15.13,1S47.6,101,47,107.4c0,0,7.9-9.75,23.66-8.44h.17a3.07,3.07,0,0,0,3.07-3.54A9.26,9.26,0,0,1,73.93,92.51Zm42.67,15.4c-.18-14-9.17-17.88-16.35-19.14C96,88,87,88.65,84.73,88.65h0c-2,.06-6.27,1.52-6.8,4.57a5.86,5.86,0,0,0,11.53,2l0-.2a3.65,3.65,0,0,1,4.05-3.18c.41,0,.84.12,1.29.19,7.37,1.3,9.88,8.5,10.67,10.66s1.54,4.18-3.26,16.49-14.12,20.43-17.75,25S63,173.65,79.08,184s24.8-24.49,28.06-31.05S116.78,121.92,116.6,107.91Zm-10.77,69.71c-3.72,21.09,17,40.69,30.94,33.6,16.24-8.26,2.42-16.2-.46-32.9-2.18-12.64-.7-20.49-1.84-39.19-1.6-26.06-14.71-40.5-14.71-40.5C127.61,129.68,109.55,156.53,105.83,177.62Zm64.44-28.15c-5.48-2.76-19.18-.23-23,4.21-9,10.6-9,40.38,16.86,53C193.17,220.92,231,180,229,172s-26.38-2.33-41.1-11.07C180.8,156.71,181.22,155,170.27,149.47Zm26-81.9c-5.08,25.58-34.44,52.12-9,51,22.14-1,38-10.59,38.36-34.09.7-45-45.48-57.13-45.48-57.13S199.29,52.35,196.26,67.57Zm37.14,4.56s1.37,32.88-15.53,46-34.4,5.81-38.94,16.13c-2.69,6.13-.21,12,4.61,16.52l1.8,1.39c.86.68,1.66,1.31,2.6,2a34.6,34.6,0,0,0,7.86,3.62l.09,0a62.92,62.92,0,0,0,12.87,2.74c3.26.34,6.86.68,9.49.95a23.33,23.33,0,0,0,12.19-2c6.95-3.25,12.82-10,15.08-22.84C252.24,98.45,233.4,72.13,233.4,72.13Z"/></svg>