<svg xmlns="http://www.w3.org/2000/svg" viewBox="0 0 1152.4 432.2"><defs><style>.cls-1{fill:#333;}.cls-2{fill:#f60;}.cls-3{fill:#f97316;}</style></defs><title>Recurso 1</title><g id="Capa_2" data-name="Capa 2"><g id="Capa_1-2" data-name="Capa 1"><path class="cls-1" d="M403,148.13c.72-4.54,36.44-40.84,41.36-45.85,4.44-4.51,3.1-5.32,11.7-5.25,26.67.22,166-1.45,169.89,1-1,2.46-2.25,2.64-4.25,4.58l-49.58,44.46c-5.5,2.72-156.53,1.3-169.12,1Zm-228.29,79.3c31,1.48,96.5.1,131.4.1,25.66,0,16.05,4.49,42.21-23.21,5.85-6.19,10.13-11.26,15.84-17.2,18.59-19.35,7.74-15.76,50.95-15.62h166c3.27-2.93,7.33-9.09,9.89-12.58,4.49-6.13,11.56-4.62,21.11-4.61h15.65c6.42,10.82,1.35,8-.62,15.6,24.13.54,58.85,1.38,79-7.83,13.31-6.09,22-14.55,31.31-22.66,3.23-2.82,3.78-2.52,7-6a57,57,0,0,1,7.27-6.7c3.08-2.53,4-4.11,6.52-6.45L778.88,99.8c6.66-7,8.81-10.41,8.22-18.81-6.14-3.4-8.56-2.43-17-2.43H313.56c-2.48,3.74-5.46,5.79-8.65,9.26L191.42,208.31c-3.53,3.69-5.84,6.37-8.71,9.33-7.33,7.57-7.94,6.22-8,9.79Z"/><path class="cls-2" d="M617.28,173.79c2.13-8.42,8-7.5,7-16.17l-25,.17a80.17,80.17,0,0,1-5.67,6.27l-42.4,56.6c-3.56,3.73-12.43,14.68-12.76,20.4-.11,2,4.71,23.1,9.9,22.34l40.62-54c3-3.83,6.33-8.07,9-12.18,3.86-4.37,10.55-15.08,14.65-16.23,1.13-.31,10.53-1.11,7.73-5.09l-3-2.08Z"/><path class="cls-2" d="M707.94,201.51c5.41,1.25,22.56,1.4,26.26-.92,1.64-1,11.56-10.25,10.62-16.47l-18.5-.31c-52.19.07-41.35-4.39-59.15,18.85-2.85,3.82-6.11,7.54-2.54,8.13l31.34.43L690.54,221c-3,4.41-3.16,5.85-10.25,5.92.54-5.07,3.91-6.55,5.46-12-5.78-.58-11.62-.35-17.43-.41-4,0-6.18-.72-9.53.79a8.3,8.3,0,0,0-3.38,2.53c-.09.07-6.78,9.14-6.86,9.28-3.49,6.25,2.8,5.76,7.77,5.77,10.12,0,43.45,1.32,50.87-.2s21.93-21.79,21.67-26.79l-31.34-.51,4.66-9.69c3.5-3.78,3.8-5.93,9.41-6.11-.77,5.65-4.07,7.63-3.65,11.9Z"/><path class="cls-2" d="M674.75,184.31c-3.43-.68-57.3-1.12-60.43-.53-3.48.71-9.73,8.78-12,12-1.08,1.53-1.43,2.48-2.77,4.24-3.62,4.74-22.06,27.11-22.18,31.62h0c5.12,2.81,57.49,1.81,59.91,1.3,8.09-1.73,16.91-15.69,21.38-22.92l9.91-13C671.08,193.81,676.14,189.1,674.75,184.31Zm-40.39,18.57-6.82,9.06c-4.78,5.4-7.32,13.05-15.6,14.4h0c.89-7.76,23.11-37.46,30.42-36.63C641.79,193.4,636.55,200.15,634.36,202.88Z"/><path class="cls-2" d="M406.17,232c5,1.92,23.54,2.15,27.25-.24.47-.3,4.31-6.46,4.82-7l11.06-16c2-3,3.62-4.19,5.78-7.23,5.68-8,6.57-11.25,14-10.78l-21.93,31c-5.75,7.9-16,18.2-9.71,27.34,1.7,4.36,6.33,10.38,7.46,14.33,5.55-4.4,5.19-4.24,8.06-8.87L461,242.8c1.78-2.8,7.25-10.27,10.22-14l5.67-7.4,10.63-14.27c7.46-10.19,15-16.58,13.64-23.1l-90.93-.22c-8.38,0-11.29,2.83-14.69,8.22L381,211.45c-3.84,5.42-12.56,14-12.62,20.35,5.7,1.91,17.32,1.89,22.8.82,7.65-2.21,10.89-9.46,16.07-15.86l15.39-20.71c2.29-2.94,3.38-6,9-6.48Z"/><path class="cls-2" d="M572.58,183.05c-3.39-.67-57.3-1.12-60.44-.52-3.49.71-9.74,8.78-12,12-1.08,1.53-1.43,2.49-2.77,4.24-3.62,4.75-22.06,27.11-22.18,31.62,5.12,2.81,57.49,1.81,59.9,1.3C543.19,230,552,216,556.44,208.77l9.92-13C568.91,192.55,574,187.84,572.58,183.05Zm-40.4,18.58-6.82,9.06c-4.78,5.4-7.33,13.06-15.6,14.4h0c.89-7.75,23.11-37.46,30.42-36.62C539.61,192.15,534.37,198.91,532.18,201.63Z"/><path class="cls-1" d="M608.31,259.81c-2.72,3.42-8,7.69-11,10.07-4.13,3.44-9.34,4.05-14.73,4.22.14-3.78,23.14-35.41,30.46-26.48,3.19,3.9-4.46,12-4.73,12.19ZM572.45,246l2.69,2.67-30.42,36.09c14.28.45,29,.17,43.32.12,3.35,0,6.78.1,10.06.08,6,0,5.22.91,10.21-1.13a35.2,35.2,0,0,0,13.53-9.48c.41-1.19,19.21-21.66,22.71-26.51.13-.26.36-.56.45-.74s.32-.51.43-.73l1-3a12.18,12.18,0,0,0-.32-4.12c-9.4-4.28-47.62-3.32-59.86-2.57l10.06,9-23.9.33ZM619,284.71l31.33-37.66,20.85-.23-10.27-10.2,26.24-.14-8.8,13.73,23.46-11c6-3.43,5.68-2.77,14.25-2.8l16.71.46c-2.66,2.08-5,3-8.46,4.85l-8.9,4.28c-10.47,5.58-19.43,9.51-29.67,14.43,1.42,7.71,4.35,16.1,4.7,24.43l-21.48.07a11.13,11.13,0,0,1-3.67-.47l-5.51-14.33h0l-14.27,14C641.48,286,624.68,285.05,619,284.71Z"/><path class="cls-1" d="M1110.07,377.9a24.91,24.91,0,0,1-8.59,6.68,22.33,22.33,0,0,1-9.83,2.84h-54.57L1042,367h45l2.11-2.69H1056c-2.82,0-4.63-.95-5.41-2.85s-.18-4.12,1.79-6.65l16.91-21.71a25.07,25.07,0,0,1,8.63-6.72,22.36,22.36,0,0,1,9.83-2.85h64.65L1136.51,344H1092.4l-3.1,4h33.1c2.82,0,4.63.95,5.41,2.84s.18,4.12-1.81,6.68L1110.07,378Z"/><path class="cls-1" d="M1064.91,326.37c-.79-1.89-2.59-2.85-5.4-2.85h-53.65a22.36,22.36,0,0,0-9.83,2.85,25.19,25.19,0,0,0-8.63,6.72L952.46,378c-2,2.53-2.57,4.76-1.79,6.65s2.59,2.84,5.4,2.84h53.65a22.35,22.35,0,0,0,9.83-2.84,24.87,24.87,0,0,0,8.57-6.65h0l35-44.87C1065.07,330.51,1065.7,328.26,1064.91,326.37ZM1005.07,367l-12.55,0,17.92-23H1023Z"/><path class="cls-1" d="M944.33,387.45H897.69c-2.87,0-4.66-1-5.35-2.91s-.13-4.19,1.84-6.73l30-38.52h-7.7l12.83-16.48H937l16-20.59h31.55l-16,20.59h15.71l-12.83,16.48H955.74l-21.47,27.56h15.11l-5,20.6Z"/><path class="cls-1" d="M884.62,377.93l15.94-20.45c2-2.56,2.6-4.78,1.81-6.68S899.77,348,897,348h-33.1l3.1-4h44.11L927,323.49H862.35a22.36,22.36,0,0,0-9.83,2.85,25.15,25.15,0,0,0-8.62,6.72L827,354.77c-2,2.53-2.58,4.76-1.79,6.65s2.59,2.85,5.4,2.85h33.1L861.6,367h-45l-4.92,20.46h54.56a22.56,22.56,0,0,0,9.84-2.84,24.78,24.78,0,0,0,8.58-6.68Z"/><path class="cls-1" d="M839.41,326.31c-.78-1.9-2.59-2.85-5.41-2.85H780.39a22.36,22.36,0,0,0-9.83,2.85,25.07,25.07,0,0,0-8.63,6.72L727,377.9c-2,2.53-2.57,4.76-1.79,6.65s2.59,2.84,5.4,2.84h54.56l26.94-20.46H767.05l2.1-2.69h33.1a22.23,22.23,0,0,0,9.83-2.85,24.87,24.87,0,0,0,8.57-6.65L837.56,333Q840.58,329.16,839.41,326.31Zm-45,21.62H781.9l3.1-4h12.55Z"/><path class="cls-1" d="M713.28,387.39l49.79-63.93H731.52L697.67,367H685.11L719,323.49H687.41L645,377.93c-2,2.53-2.57,4.76-1.79,6.65s2.59,2.84,5.41,2.84Z"/><path class="cls-1" d="M675.45,326.41c-.74-1.92-2.54-2.92-5.35-2.92H605.45l-71.81,92.2H565.2l21.48-27.59h33.1a22.35,22.35,0,0,0,9.83-2.84,24.87,24.87,0,0,0,8.57-6.65l0,0,35.39-45.44C675.56,330.62,676.19,328.33,675.45,326.41ZM615.28,367.5l-12.58,0,18.15-23.32h12.57Z"/><path class="cls-1" d="M593.59,326.28c-.79-1.89-2.59-2.85-5.4-2.85h-53.7a22.36,22.36,0,0,0-9.83,2.85A25.07,25.07,0,0,0,516,333l-34.94,44.87c-2,2.53-2.58,4.76-1.79,6.65s2.59,2.84,5.4,2.84h54.57L566.21,367l0-.1h-45l2.1-2.69h33.1a22.23,22.23,0,0,0,9.83-2.85,24.87,24.87,0,0,0,8.57-6.65L591.74,333C593.74,330.42,594.38,328.17,593.59,326.28Zm-45,21.62H536l3.1-4h12.58Z"/><path class="cls-1" d="M471.51,387.36H442.77l.11-.14v-.4l.67-2.44,2-8.67,10-39.18h19.86l10.75-13.81H467.32L417,387.42H385.42l66.39-85.23h71c2.83,0,4.6,1,5.35,2.91s.12,4.19-1.85,6.72l-24.58,31.56a25.43,25.43,0,0,1-8.63,6.73c-3.77,1.94-7.05,2.91-9.88,2.91h-3l-8.69,34.4Z"/><path class="cls-1" d="M423.29,326.41c-.79-1.89-2.59-2.85-5.4-2.85H364.25a22.36,22.36,0,0,0-9.83,2.85,25,25,0,0,0-8.62,6.72L310.85,378c-2,2.53-2.57,4.76-1.79,6.65s2.59,2.84,5.41,2.84h53.64a22.35,22.35,0,0,0,9.83-2.84,24.87,24.87,0,0,0,8.57-6.65h0l34.95-44.87C423.45,330.55,424.08,328.3,423.29,326.41ZM363.5,367H350.94l17.92-23h12.56Z"/><path class="cls-1" d="M302.76,387.49H256.12c-2.87,0-4.66-1-5.35-2.91s-.13-4.19,1.84-6.73l30-38.52h-7.7l12.83-16.48h7.7l16-20.59H343l-16,20.59h15.71l-12.83,16.48H314.17L292.7,366.82h15.11l-5,20.6Z"/><path class="cls-1" d="M279.85,326.34c-.78-1.89-2.6-2.85-5.41-2.85H220.79a22.4,22.4,0,0,0-9.84,2.85,25.15,25.15,0,0,0-8.62,6.72l-34.94,44.87c-2,2.53-2.58,4.76-1.8,6.65s2.6,2.84,5.41,2.84h53.64a22.43,22.43,0,0,0,9.84-2.84,25,25,0,0,0,8.57-6.65L243,378l35-44.94C280,330.48,280.63,328.23,279.85,326.34ZM220,367H207.47l17.93-23H238Z"/><path class="cls-1" d="M56.6,387.23,99.29,323a25.75,25.75,0,0,0-18,9.79L58.2,364.16c-7.75,9.68-12.6,20.66-24.06,24-8.21,1.63-25.61,1.66-34.14-1.24.09-9.67,13.15-22.58,18.9-30.77L40.78,326.7c5.09-8.16,9.45-12.36,22-12.43L199,314.6c2,9.86-9.26,19.53-20.43,35l-15.91,21.58-8.5,11.2-15.31,21.1L116.87,432.2c-1.69-6-10.86-12.61-13.41-19.21-9.38-13.81,5.93-29.4,14.55-41.35l32.83-46.84c-12.4-.79-22.58,16.77-29.65,27.25l-16.56,24.22c-.76.88-6.52,10.19-7.22,10.65C91.86,390.48,64,390.13,56.6,387.23Z"/><path d="M818.35,257.25h6.26c.13-2.65-.09-5.16.19-7.79-.35.18-.11-.23-.27.37-.13.45,0,6-.11,7-.68.35-4.7,0-6,.12Z"/><path d="M839.26,257.24l-.1-.21c-1.56-.24-5,.15-6.54-.12a46,46,0,0,1-.09-5.25,33.32,33.32,0,0,0-.11,5.56Z"/><path d="M853.5,256.27v-1.2c-.14-.06-.13,0-.27-.11a5.29,5.29,0,0,0,.07.8C853.34,256.07,853.25,256.27,853.5,256.27Z"/><path d="M853.28,259.25h.22V258.2c-.24.07-.13-.05-.19.4C853.29,258.82,853.28,259,853.28,259.25Z"/><path d="M803.52,259.11a1,1,0,0,0,.23.12c0-.27.06-.88-.23-.9Z"/><path d="M830.57,232.45c-.09-.19,0-.12-.12-.21h-.61C829.84,232.54,830.24,232.44,830.57,232.45Z"/><path d="M803.52,255.9c.22-.1.12,0,.19-.25a1.21,1.21,0,0,0,0-.38h-.2Z"/><path d="M827.64,243.26c.56-.08.27,0,.34-.27l-.38-.08Z"/><path class="cls-3" d="M867,1.07C862-1.22,278.39,1,165.14.34c-9.11-.05-16,7.17-24.38,14.35l-10.34,8.63C124,28.81,93.47,50.84,90.58,55.78c-5.15,2.2-3.86,1.87-7.88,4.89l-1.2.83c-3.76,2.78-3.06,2.33-3.24,5.51,2.52.14,8.46.29,16,.39h1.19c9.88.12,22.22.16,33.19,0h47.73L157.92,88.48,39.43,223.75h0l-.56.63H103c13.7,0,27.39-.1,41.06-.06,16.66.06,11.57,1.9,32-20.26,15.58-16.86,35.54-36.62,50.88-54.14l26-27c8.64-9,17-17.93,25.25-26.77L303.53,69c30.42-1.64,100.8-.22,135.62-.22,112.64,0,227.7-.79,340,0,7.66,0,7.49,0,12.54-4.16L815.05,46c3.14-2.52,3-1.56,4.93-4.9,4.43-3.32,7.4-5.66,12-9.2l8.64-7.36c1.81-1.53,1.89-1.32,3.44-2.58,1.86-1.5,3.73-3.33,5.89-5.08l15.1-11.95C867.82,2.29,866.69,5.86,867,1.07Z"/></g></g></svg>