<svg xmlns="http://www.w3.org/2000/svg" viewBox="0 0 828.13 285.26"><defs><style>.cls-1{fill:#fff;}</style></defs><title>Recurso 1</title><g id="Capa_2" data-name="Capa 2"><g id="Capa_1-2" data-name="Capa 1"><g id="Capa_2-2" data-name="Capa 2"><g id="Capa_1-2-2" data-name="Capa 1-2"><path class="cls-1" d="M364.13,148.13c.72-4.54,36.44-40.84,41.36-45.85,4.44-4.51,3.1-5.32,11.7-5.25,26.67.22,166-1.45,169.89,1-1,2.46-2.25,2.64-4.25,4.58l-49.58,44.46c-5.5,2.72-156.53,1.3-169.12,1Zm-228.29,79.3c31,1.48,96.5.1,131.4.1,25.66,0,16.05,4.49,42.21-23.21,5.85-6.19,10.13-11.26,15.84-17.2,18.59-19.35,7.74-15.76,50.95-15.62h166c3.27-2.93,7.33-9.09,9.89-12.58,4.49-6.13,11.56-4.62,21.11-4.61h15.65c6.42,10.82,1.35,8-.62,15.6,24.13.54,58.85,1.38,79-7.83,13.31-6.09,22-14.55,31.31-22.66,3.23-2.82,3.78-2.52,7-6a57,57,0,0,1,7.27-6.7c3.08-2.53,4-4.11,6.52-6.45L740,99.8c6.66-7,8.81-10.41,8.22-18.81-6.14-3.4-8.56-2.43-17-2.43H274.69c-2.48,3.74-5.46,5.79-8.65,9.26L152.55,208.31c-3.53,3.69-5.84,6.37-8.71,9.33-7.33,7.57-7.94,6.22-8,9.79Z"/><path class="cls-1" d="M578.41,173.79c2.13-8.42,8-7.5,7-16.17l-25,.17a80.17,80.17,0,0,1-5.67,6.27l-42.4,56.6c-3.56,3.73-12.43,14.68-12.76,20.4-.11,2,4.71,23.1,9.9,22.34l40.62-54c3-3.83,6.33-8.07,9-12.18,3.86-4.37,10.55-15.08,14.65-16.23,1.13-.31,10.53-1.11,7.73-5.09l-3-2.08Z"/><path class="cls-1" d="M669.07,201.51c5.41,1.25,22.56,1.4,26.26-.92,1.64-1,11.56-10.25,10.62-16.47l-18.5-.31c-52.19.07-41.35-4.39-59.15,18.85-2.85,3.82-6.11,7.54-2.54,8.13l31.34.43L651.67,221c-3,4.41-3.16,5.85-10.25,5.92.54-5.07,3.91-6.55,5.46-12-5.78-.58-11.62-.35-17.43-.41-4,0-6.18-.72-9.53.79a8.3,8.3,0,0,0-3.38,2.53c-.09.07-6.78,9.14-6.86,9.28-3.49,6.25,2.8,5.76,7.77,5.77,10.12,0,43.45,1.32,50.87-.2s21.93-21.79,21.67-26.79l-31.34-.51,4.66-9.69c3.5-3.78,3.8-5.93,9.41-6.11-.77,5.65-4.07,7.63-3.65,11.9Z"/><path class="cls-1" d="M635.88,184.31c-3.43-.68-57.3-1.12-60.43-.53-3.48.71-9.73,8.78-12,12-1.08,1.53-1.43,2.48-2.77,4.24-3.62,4.74-22.06,27.11-22.18,31.62h0c5.12,2.81,57.49,1.81,59.91,1.3,8.09-1.73,16.91-15.69,21.38-22.92l9.91-13C632.21,193.81,637.27,189.1,635.88,184.31Zm-40.39,18.57-6.82,9.06c-4.78,5.4-7.32,13.05-15.6,14.4h0c.89-7.76,23.11-37.46,30.42-36.63C602.92,193.4,597.68,200.15,595.49,202.88Z"/><path class="cls-1" d="M367.3,232c5,1.92,23.54,2.15,27.25-.24.47-.3,4.31-6.46,4.82-7l11.06-16c2-3,3.62-4.19,5.78-7.23,5.68-8,6.57-11.25,14-10.78l-21.93,31c-5.75,7.9-16,18.2-9.71,27.34,1.7,4.36,6.33,10.38,7.46,14.33,5.55-4.4,5.19-4.24,8.06-8.87l8.08-11.75c1.78-2.8,7.25-10.27,10.22-14l5.67-7.4,10.63-14.27c7.46-10.19,15-16.58,13.64-23.1l-90.93-.22c-8.38,0-11.29,2.83-14.69,8.22l-14.58,19.42c-3.84,5.42-12.56,14-12.62,20.35,5.7,1.91,17.32,1.89,22.8.82,7.65-2.21,10.89-9.46,16.07-15.86l15.39-20.71c2.29-2.94,3.38-6,9-6.48Z"/><path class="cls-1" d="M533.71,183.05c-3.39-.67-57.3-1.12-60.44-.52-3.49.71-9.74,8.78-12,12-1.08,1.53-1.43,2.49-2.77,4.24-3.62,4.75-22.06,27.11-22.18,31.62,5.12,2.81,57.49,1.81,59.9,1.3,8.1-1.69,16.91-15.69,21.35-22.92l9.92-13C530,192.55,535.1,187.84,533.71,183.05Zm-40.4,18.58-6.82,9.06c-4.78,5.4-7.33,13.06-15.6,14.4h0c.89-7.75,23.11-37.46,30.42-36.62-.57,3.68-5.81,10.44-8,13.16Z"/><path class="cls-1" d="M569.44,259.81c-2.72,3.42-8,7.69-11,10.07-4.13,3.44-9.34,4.05-14.73,4.22.14-3.78,23.14-35.41,30.46-26.48,3.19,3.9-4.46,12-4.73,12.19ZM533.58,246l2.69,2.67-30.42,36.09c14.28.45,29,.17,43.32.12,3.35,0,6.78.1,10.06.08,6,0,5.22.91,10.21-1.13A35.22,35.22,0,0,0,583,274.35c.41-1.19,19.21-21.66,22.71-26.51.13-.26.36-.56.45-.74s.32-.51.43-.73l1-3a12.18,12.18,0,0,0-.32-4.12c-9.4-4.28-47.62-3.32-59.86-2.57l10.06,9-23.9.33Zm46.55,38.71,31.33-37.66,20.85-.23L622,236.62l26.24-.14-8.8,13.73,23.46-11c6-3.43,5.68-2.77,14.25-2.8l16.71.46c-2.66,2.08-5,3-8.46,4.85L676.5,246c-10.47,5.58-19.43,9.51-29.67,14.43,1.42,7.71,4.35,16.1,4.7,24.43l-21.48.07a11.13,11.13,0,0,1-3.67-.47l-5.51-14.33h0l-14.27,14C602.61,286,585.81,285.05,580.13,284.71Z"/><path class="cls-1" d="M828.13,1.07c-5-2.29-588.61-.1-701.86-.73-9.11-.05-16,7.17-24.38,14.35L91.55,23.32C85.13,28.81,54.6,50.84,51.71,55.78c-5.15,2.2-3.86,1.87-7.88,4.89l-1.2.83c-3.76,2.78-3.06,2.33-3.24,5.51,2.52.14,8.46.29,16,.39h1.19c9.88.12,22.22.16,33.19,0H137.5L119.05,88.48.56,223.75h0l-.56.63H64.17c13.7,0,27.39-.1,41.06-.06,16.66.06,11.57,1.9,32-20.26,15.58-16.86,35.54-36.62,50.88-54.14l26-27c8.64-9,17-17.93,25.25-26.77L264.66,69c30.42-1.64,100.8-.22,135.62-.22,112.64,0,227.7-.79,340,0,7.66,0,7.49,0,12.54-4.16L776.18,46c3.14-2.52,3-1.56,4.93-4.9,4.43-3.32,7.4-5.66,12-9.2l8.64-7.36c1.81-1.53,1.89-1.32,3.44-2.58,1.86-1.5,3.73-3.33,5.89-5.08l15.1-11.95C829,2.29,827.82,5.86,828.13,1.07Z"/></g></g></g></g></svg>